<svg width="25" height="27" viewBox="0 0 25 27" fill="none" xmlns="http://www.w3.org/2000/svg">
<g clip-path="url(#clip0)">
<path d="M21.8641 6.18448H19.0403C18.9672 6.18448 18.8301 6.08088 18.807 6.00828L18.0769 3.71072C17.8539 3.01073 17.1551 2.48314 16.4516 2.48314H8.4507C7.74632 2.48314 7.04727 3.01133 6.82526 3.71152L6.0955 6.00788C6.07224 6.08048 5.93491 6.18428 5.86205 6.18428H3.03822C1.3361 6.18448 -0.0488281 7.63645 -0.0488281 9.42123V20.5251C-0.0488281 22.31 1.3361 23.7622 3.03822 23.7622H21.8641C23.5662 23.7622 24.9512 22.31 24.9512 20.5251V9.42123C24.9512 7.63645 23.5662 6.18448 21.8641 6.18448ZM23.4835 20.5251C23.4835 21.4614 22.7571 22.2232 21.8641 22.2232H3.03822C2.1452 22.2232 1.41888 21.4614 1.41888 20.5251V9.42123C1.41888 8.48504 2.1452 7.72325 3.03822 7.72325H5.86205C6.56567 7.72325 7.26433 7.19546 7.48768 6.49507L8.21762 4.19771C8.24051 4.12551 8.37784 4.02211 8.4507 4.02211H16.4516C16.5245 4.02211 16.6618 4.12591 16.6847 4.19791L17.4147 6.49447C17.6369 7.19486 18.3357 7.72325 19.0403 7.72325H21.8641C22.7571 7.72325 23.4835 8.48504 23.4835 9.42123V20.5251Z" fill="white"/>
<path d="M12.6785 8.22684C9.38147 8.22684 6.69897 11.0396 6.69897 14.4967C6.69897 17.9539 9.38147 20.7666 12.6785 20.7666C15.9756 20.7666 18.6581 17.9539 18.6581 14.4967C18.6581 11.0396 15.9757 8.22684 12.6785 8.22684ZM12.6785 19.2279C10.1906 19.2279 8.16668 17.1055 8.16668 14.4967C8.16668 11.8882 10.1906 9.76582 12.6785 9.76582C15.1665 9.76582 17.1903 11.8882 17.1903 14.4967C17.1903 17.1055 15.1665 19.2279 12.6785 19.2279Z" fill="white"/>
<path d="M12.6785 11.1332C10.9099 11.1332 9.47076 12.6422 9.47076 14.4968C9.47076 16.3513 10.9099 17.8603 12.6785 17.8603C14.4474 17.8603 15.8863 16.3513 15.8863 14.4968C15.8863 12.6422 14.4474 11.1332 12.6785 11.1332ZM12.6785 16.3215C11.719 16.3215 10.9385 15.5029 10.9385 14.4968C10.9385 13.4908 11.719 12.6722 12.6785 12.6722C13.6381 12.6722 14.4186 13.4908 14.4186 14.4968C14.4186 15.5029 13.6381 16.3215 12.6785 16.3215Z" fill="white"/>
<path d="M21.4251 10.2198C21.4207 10.1952 21.4148 10.1704 21.4075 10.1468C21.4007 10.1228 21.3928 10.0992 21.3835 10.0756C21.3741 10.0526 21.3638 10.0298 21.3526 10.0078C21.3413 9.98584 21.3291 9.96384 21.316 9.94324C21.3028 9.92224 21.2881 9.90164 21.2734 9.88224C21.2578 9.86284 21.2416 9.84384 21.225 9.82625C21.2078 9.80845 21.1897 9.79145 21.1712 9.77505C21.1525 9.75965 21.133 9.74425 21.1134 9.73045C21.0934 9.71665 21.0724 9.70365 21.0512 9.69185C21.0302 9.68025 21.0087 9.66945 20.9868 9.65965C20.9642 9.64985 20.9417 9.64165 20.9187 9.63445C20.8962 9.62685 20.8727 9.62065 20.8492 9.61605C20.8258 9.61085 20.8017 9.60725 20.7779 9.60465C20.7298 9.59965 20.6814 9.59965 20.6335 9.60465C20.6101 9.60725 20.586 9.61085 20.5626 9.61605C20.5391 9.62065 20.5156 9.62685 20.4926 9.63445C20.4701 9.64165 20.4472 9.64985 20.425 9.65965C20.4031 9.66945 20.3812 9.68005 20.36 9.69185C20.339 9.70365 20.3184 9.71665 20.2984 9.73045C20.2784 9.74425 20.2587 9.75965 20.2408 9.77505C20.2221 9.79145 20.204 9.80845 20.1868 9.82625C20.1698 9.84384 20.1536 9.86284 20.1384 9.88224C20.1233 9.90164 20.1092 9.92224 20.0958 9.94324C20.0827 9.96384 20.0699 9.98584 20.0586 10.0078C20.0474 10.03 20.0373 10.0526 20.0283 10.0756C20.0192 10.0992 20.0108 10.1228 20.0039 10.1468C19.997 10.1704 19.9911 10.1952 19.9864 10.2198C19.9814 10.2444 19.978 10.2696 19.9755 10.2946C19.9732 10.3198 19.972 10.3448 19.972 10.37C19.972 10.5726 20.0504 10.7712 20.1868 10.9142C20.204 10.9318 20.2221 10.9492 20.2408 10.965C20.2587 10.981 20.2784 10.9958 20.2984 11.0098C20.3184 11.0236 20.339 11.0368 20.36 11.0486C20.3812 11.06 20.4031 11.0712 20.425 11.0804C20.4472 11.0902 20.4701 11.099 20.4926 11.1062C20.5156 11.1134 20.5391 11.1194 20.5626 11.1246C20.586 11.1298 20.6101 11.1334 20.6335 11.1358C20.6575 11.1384 20.682 11.1394 20.706 11.1394C20.7298 11.1394 20.7539 11.1384 20.7779 11.1358C20.8017 11.1334 20.8258 11.1298 20.8492 11.1246C20.8727 11.1194 20.8962 11.1132 20.9187 11.1062C20.9417 11.099 20.9642 11.0902 20.9868 11.0804C21.0087 11.0712 21.0302 11.06 21.0512 11.0486C21.0724 11.037 21.0934 11.0236 21.1134 11.0098C21.133 10.9958 21.1525 10.981 21.1712 10.965C21.1897 10.9492 21.2078 10.9318 21.225 10.9142C21.3615 10.7712 21.4398 10.5726 21.4398 10.37C21.4398 10.345 21.4382 10.3198 21.4357 10.2946C21.4338 10.2694 21.43 10.2444 21.4251 10.2198Z" fill="white"/>
<path d="M21.4251 12.3742C21.4207 12.3496 21.4148 12.325 21.4075 12.3014C21.4007 12.2772 21.3923 12.2536 21.3835 12.23C21.3741 12.207 21.3638 12.1844 21.3526 12.1624C21.3413 12.1404 21.3291 12.1182 21.316 12.0978C21.3028 12.0766 21.2881 12.0562 21.2729 12.0366C21.2578 12.0172 21.2416 11.9982 21.2244 11.9808C21.0714 11.8196 20.8508 11.736 20.6335 11.7586C20.6101 11.7612 20.586 11.7654 20.5626 11.77C20.5391 11.7752 20.5156 11.7812 20.4926 11.789C20.4701 11.7962 20.4472 11.8044 20.425 11.814C20.4031 11.8238 20.3812 11.8346 20.36 11.8464C20.339 11.8582 20.3184 11.871 20.2984 11.8848C20.2784 11.8988 20.2587 11.914 20.2408 11.93C20.2221 11.946 20.204 11.9628 20.1868 11.9808C20.0504 12.1238 19.972 12.3218 19.972 12.5246C19.972 12.5496 19.9732 12.5752 19.9755 12.6004C19.978 12.625 19.9814 12.6502 19.9864 12.6748C19.9911 12.6994 19.997 12.724 20.0039 12.7482C20.0108 12.7718 20.0192 12.796 20.0283 12.819C20.0373 12.842 20.0474 12.8652 20.0586 12.8872C20.0699 12.9092 20.0827 12.9308 20.0958 12.9518C20.1092 12.9728 20.1233 12.9934 20.1384 13.0124C20.1536 13.0318 20.1698 13.0508 20.1868 13.0688C20.204 13.0868 20.2221 13.1038 20.2408 13.1196C20.2587 13.1356 20.2784 13.1504 20.2984 13.1642C20.3184 13.178 20.339 13.1914 20.36 13.2032C20.3812 13.2146 20.4031 13.2258 20.425 13.235C20.4472 13.2448 20.4701 13.2534 20.4926 13.2606C20.5156 13.2678 20.5391 13.274 20.5626 13.2792C20.586 13.2842 20.6101 13.2878 20.6335 13.2904C20.6575 13.293 20.682 13.294 20.706 13.294C20.7298 13.294 20.7539 13.293 20.7779 13.2904C20.8017 13.2878 20.8258 13.2842 20.8492 13.2792C20.8727 13.274 20.8962 13.2678 20.9187 13.2606C20.9417 13.2534 20.9642 13.2448 20.9862 13.235C21.0083 13.2258 21.0302 13.2146 21.0512 13.2032C21.0724 13.1914 21.0934 13.178 21.113 13.1642C21.133 13.1504 21.1525 13.1354 21.1712 13.1196C21.1897 13.1038 21.2078 13.0868 21.2244 13.0688C21.2416 13.0508 21.2578 13.0318 21.2729 13.0124C21.2881 12.9934 21.3028 12.9728 21.316 12.9518C21.3291 12.9308 21.3413 12.9092 21.3526 12.8872C21.3638 12.8652 21.3741 12.842 21.3835 12.819C21.3923 12.796 21.4007 12.7718 21.4075 12.7482C21.4148 12.724 21.4207 12.6994 21.4251 12.6748C21.43 12.6502 21.4335 12.625 21.4357 12.6004C21.4382 12.5752 21.4398 12.5496 21.4398 12.5246C21.4398 12.4994 21.4382 12.4742 21.4357 12.449C21.4335 12.424 21.43 12.3988 21.4251 12.3742Z" fill="white"/>
</g>
<defs>
<clipPath id="clip0">
<rect width="25" height="26.1628" fill="white"/>
</clipPath>
</defs>
</svg>
