<svg width="50" height="50" viewBox="0 0 50 50" fill="none" xmlns="http://www.w3.org/2000/svg">
<path d="M30.8333 29.1667H29.9167C29.5719 29.1673 29.2634 28.9522 29.145 28.6283C29.0433 28.3617 28.9342 28.1008 28.8167 27.8425C28.6706 27.5283 28.7373 27.1564 28.9833 26.9125L29.6367 26.2583C30.6066 25.2799 30.6048 23.702 29.6325 22.7258L27.2775 20.3708C26.3001 19.3992 24.7216 19.3992 23.7442 20.3708L23.0908 21.0233C22.8465 21.2684 22.4751 21.335 22.1608 21.19C21.9025 21.0725 21.6417 20.9633 21.3742 20.8567C21.0486 20.7391 20.8321 20.4295 20.8333 20.0833V19.1667C20.8333 17.7859 19.7141 16.6667 18.3333 16.6667H15C13.6193 16.6667 12.5 17.7859 12.5 19.1667V20.0833C12.5006 20.4281 12.2855 20.7366 11.9617 20.855C11.695 20.9567 11.4342 21.0658 11.1758 21.1833C10.8616 21.3287 10.4901 21.2621 10.2458 21.0167L9.59167 20.3633C8.61438 19.3923 7.03646 19.3923 6.05917 20.3633L3.70417 22.7258C2.7325 23.7032 2.7325 25.2818 3.70417 26.2592L4.35667 26.9125C4.60271 27.1564 4.66938 27.5283 4.52333 27.8425C4.40583 28.1008 4.29667 28.3617 4.19417 28.6292C4.0749 28.9549 3.76354 29.1702 3.41667 29.1667H2.5C1.11927 29.1667 0 30.2859 0 31.6667V35C0 36.3807 1.11927 37.5 2.5 37.5H3.41667C3.76146 37.4994 4.0699 37.7145 4.18833 38.0383C4.29 38.305 4.39917 38.5658 4.51667 38.8242C4.66271 39.1383 4.59604 39.5103 4.35 39.7542L3.69667 40.4083C2.72563 41.3856 2.72563 42.9635 3.69667 43.9408L6.05167 46.2958C7.02906 47.2675 8.6076 47.2675 9.585 46.2958L10.2383 45.6433C10.4827 45.3982 10.8541 45.3317 11.1683 45.4767C11.4267 45.5942 11.6875 45.7033 11.955 45.81C12.2822 45.9263 12.5006 46.2362 12.5 46.5833V47.5C12.5 48.8807 13.6193 50 15 50H18.3333C19.7141 50 20.8333 48.8807 20.8333 47.5V46.5833C20.8327 46.2385 21.0478 45.9301 21.3717 45.8117C21.6383 45.71 21.8992 45.6008 22.1575 45.4833C22.4718 45.338 22.8432 45.4046 23.0875 45.65L23.7417 46.3033C24.7203 47.2728 26.2978 47.2709 27.2742 46.2992L29.6292 43.9442C30.6008 42.9668 30.6008 41.3882 29.6292 40.4108L28.9767 39.7575C28.7306 39.5137 28.664 39.1417 28.81 38.8275C28.9275 38.5692 29.0367 38.3083 29.1433 38.0408C29.2609 37.7153 29.5705 37.4988 29.9167 37.5H30.8333C32.2141 37.5 33.3333 36.3807 33.3333 35V31.6667C33.3333 30.2859 32.2141 29.1667 30.8333 29.1667ZM31.6667 35C31.6667 35.4602 31.2935 35.8333 30.8333 35.8333H29.9167C28.8807 35.8372 27.9536 36.4775 27.5833 37.445C27.495 37.6783 27.3995 37.908 27.2967 38.1342C26.8682 39.08 27.067 40.1921 27.7967 40.9308L28.4483 41.5833C28.774 41.9085 28.7743 42.4363 28.449 42.7619C28.4487 42.7621 28.4485 42.7623 28.4483 42.7625L26.0933 45.1175C25.7679 45.4428 25.2404 45.4428 24.915 45.1175L24.2617 44.465C23.5232 43.7347 22.4107 43.5358 21.465 43.965C21.2392 44.0675 21.0092 44.1633 20.7775 44.2517C19.8107 44.6219 19.1708 45.5481 19.1667 46.5833V47.5C19.1667 47.9602 18.7935 48.3333 18.3333 48.3333H15C14.5398 48.3333 14.1667 47.9602 14.1667 47.5V46.5833C14.1628 45.5474 13.5225 44.6203 12.555 44.25C12.3217 44.1617 12.092 44.0662 11.8658 43.9633C10.92 43.5351 9.80802 43.734 9.06917 44.4633L8.41667 45.115C8.09146 45.4406 7.56375 45.4409 7.23813 45.1156C7.23792 45.1154 7.23771 45.1152 7.2375 45.115L4.8825 42.7625C4.55719 42.4371 4.55719 41.9096 4.8825 41.5842L5.535 40.9308C6.26469 40.1921 6.46344 39.08 6.035 38.1342C5.9325 37.9083 5.83667 37.6783 5.74833 37.4467C5.37896 36.4789 4.4525 35.8379 3.41667 35.8333H2.5C2.03979 35.8333 1.66667 35.4602 1.66667 35V31.6667C1.66667 31.2065 2.03979 30.8333 2.5 30.8333H3.41667C4.4526 30.8295 5.37969 30.1892 5.75 29.2217C5.83833 28.9883 5.93385 28.7586 6.03667 28.5325C6.4651 27.5867 6.26625 26.4746 5.53667 25.7358L4.88167 25.0833C4.55604 24.7581 4.55573 24.2304 4.88104 23.9048C4.88125 23.9046 4.88146 23.9044 4.88167 23.9042L7.23667 21.5492C7.56208 21.2239 8.08958 21.2239 8.415 21.5492L9.06833 22.2017C9.80677 22.932 10.9193 23.1308 11.865 22.7017C12.0908 22.5992 12.3208 22.5033 12.5525 22.415C13.5206 22.0459 14.162 21.1194 14.1667 20.0833V19.1667C14.1667 18.7065 14.5398 18.3333 15 18.3333H18.3333C18.7935 18.3333 19.1667 18.7065 19.1667 19.1667V20.0833C19.1705 21.1193 19.8108 22.0464 20.7783 22.4167C21.0117 22.505 21.2414 22.6005 21.4675 22.7033C22.4132 23.1325 23.5257 22.9337 24.2642 22.2033L24.9167 21.5517C25.2433 21.2285 25.7692 21.2285 26.0958 21.5517L28.4508 23.9067C28.7761 24.2321 28.7761 24.7596 28.4508 25.085L27.7983 25.7383C27.0688 26.4771 26.8699 27.5892 27.2983 28.535C27.4008 28.7608 27.4967 28.9908 27.585 29.2225C27.9552 30.1893 28.8815 30.8292 29.9167 30.8333H30.8333C31.2935 30.8333 31.6667 31.2065 31.6667 31.6667V35Z" fill="#233237"/>
<path d="M24.15 33C24.1417 32.8 24.1275 32.6008 24.1033 32.4025C24.0767 32.1892 24.045 31.9775 24.0008 31.77C23.9717 31.6342 23.9333 31.5 23.8967 31.365C23.85 31.1933 23.7975 31.0242 23.7392 30.8575C23.6983 30.7417 23.6558 30.6267 23.6125 30.5125C23.5052 30.2456 23.3825 29.9851 23.245 29.7325C23.2342 29.7133 23.2275 29.6925 23.2167 29.6733C22.9999 29.2875 22.7489 28.9218 22.4667 28.5808C22.4425 28.5508 22.415 28.5225 22.39 28.4933C22.275 28.3575 22.1567 28.2258 22.0325 28.1C21.9675 28.0325 21.8992 27.9691 21.8308 27.9041C21.7475 27.8266 21.6642 27.75 21.5808 27.6767C21.4797 27.5888 21.3767 27.5038 21.2717 27.4216L21.135 27.32C19.8455 26.3541 18.2777 25.8325 16.6667 25.8333C16.5833 25.8333 16.5 25.8458 16.4167 25.8491C16.2392 25.8541 16.0608 25.8641 15.8817 25.8825C15.7875 25.8925 15.6925 25.9033 15.5983 25.9166C15.3267 25.9524 15.0571 26.0028 14.7908 26.0675C10.7782 27.1044 8.36595 31.1979 9.40283 35.2105C10.0862 37.8547 12.152 39.9188 14.7967 40.6C14.81 40.6 14.8242 40.6042 14.8383 40.6075C15.1262 40.6793 15.4177 40.735 15.7117 40.7742C15.9058 40.7983 16.1 40.8033 16.295 40.8125C16.425 40.8192 16.545 40.8383 16.6808 40.8383C16.9183 40.8383 17.165 40.8225 17.4167 40.7975C17.4433 40.7975 17.47 40.79 17.5 40.7867C17.7025 40.7642 17.9075 40.7342 18.1167 40.6925C18.2 40.6767 18.2775 40.6558 18.3575 40.6375C18.5042 40.6033 18.65 40.5675 18.8 40.5233C18.9167 40.4883 19.03 40.4475 19.1442 40.4075C19.2583 40.3675 19.3767 40.3242 19.495 40.2792C19.6133 40.2342 19.7125 40.1825 19.82 40.1325C19.96 40.0683 20.0992 40.005 20.2367 39.93H20.2417C21.0194 39.5136 21.7377 38.9949 22.3775 38.3875C22.5503 38.2262 22.7006 38.0423 22.8242 37.8408C23.4746 36.7981 23.9019 35.632 24.0792 34.4158C24.1025 34.255 24.1233 34.0942 24.1358 33.93C24.1475 33.7792 24.1558 33.6292 24.1592 33.4792C24.1592 33.4317 24.1658 33.3867 24.1658 33.3392C24.1667 33.2217 24.155 33.1133 24.15 33ZM22.4892 33.5458C22.4892 33.615 22.4833 33.6842 22.4792 33.7525C22.4642 33.9542 22.4383 34.1558 22.4042 34.3583C22.0927 36.0909 21.017 37.5909 19.4758 38.4417C19.3725 38.4958 19.2708 38.5467 19.1692 38.5933L19.1 38.6267C18.6158 38.8465 18.1048 39.0011 17.58 39.0867C17.5433 39.0925 17.5058 39.0992 17.4683 39.1042C17.3642 39.1192 17.2617 39.1317 17.16 39.1408C17.0258 39.1525 16.8908 39.1592 16.7533 39.1617C16.695 39.1617 16.6375 39.1617 16.5792 39.1617C16.382 39.1594 16.1851 39.1472 15.9892 39.125L15.8892 39.1133C15.66 39.0833 15.4327 39.0405 15.2083 38.985C12.0873 38.1861 10.2048 35.0084 11.0036 31.8874C11.5314 29.8251 13.1407 28.214 15.2025 27.6841V27.6833C15.6813 27.5626 16.1729 27.5009 16.6667 27.5C16.9049 27.5013 17.1429 27.5175 17.3792 27.5483C17.4425 27.5558 17.505 27.5675 17.5675 27.5766C17.7475 27.605 17.9258 27.6408 18.1017 27.6858C18.1592 27.7008 18.2167 27.7141 18.2733 27.73C18.7165 27.8579 19.143 28.0375 19.5442 28.265C19.6083 28.3025 19.6708 28.3416 19.7342 28.3808C19.8658 28.4641 19.9933 28.5475 20.1192 28.6425C20.1867 28.6916 20.255 28.74 20.32 28.7925C20.4836 28.9231 20.6401 29.0622 20.7892 29.2091C20.8483 29.2691 20.9025 29.335 20.96 29.3975C21.0558 29.5017 21.1492 29.6083 21.2383 29.7208C21.3 29.7983 21.3592 29.8783 21.4175 29.9592C21.5008 30.0792 21.5842 30.2042 21.6592 30.3308C21.7008 30.4 21.7425 30.4675 21.785 30.5383C21.8925 30.7361 21.9882 30.9401 22.0717 31.1492C22.105 31.2325 22.1333 31.3158 22.1633 31.3992C22.2175 31.5525 22.2642 31.7075 22.305 31.8642C22.3258 31.9475 22.3492 32.0217 22.3667 32.1025C22.4153 32.3277 22.4506 32.5556 22.4725 32.785C22.4775 32.8458 22.4775 32.9075 22.4817 32.9683C22.4933 33.16 22.4967 33.3525 22.4892 33.5458Z" fill="#233237"/>
<path d="M47.5 17.5H44.8792C44.5297 17.5035 44.2171 17.2834 44.1025 16.9533C43.8441 16.1793 43.5313 15.4243 43.1667 14.6942C43.0119 14.3789 43.0763 13.9998 43.3267 13.7533L45.185 11.8925C46.1604 10.9164 46.1604 9.33448 45.185 8.35833L41.6417 4.82083C40.6655 3.84542 39.0836 3.84542 38.1075 4.82083L36.25 6.6775C36.0038 6.92771 35.6253 6.9925 35.31 6.83833C34.5798 6.47177 33.8246 6.1574 33.05 5.8975C32.7185 5.78406 32.4969 5.47115 32.5 5.12083V2.5C32.5 1.11927 31.3807 0 30 0H25C23.6193 0 22.5 1.11927 22.5 2.5V5.12083C22.5035 5.47031 22.2835 5.78292 21.9533 5.8975C21.1792 6.15729 20.4242 6.47146 19.6942 6.8375C19.3788 6.99281 18.9996 6.92833 18.7533 6.6775L16.8925 4.81917C15.9152 3.84656 14.3356 3.84656 13.3583 4.81917L9.82166 8.35583C8.84572 9.33208 8.84572 10.9146 9.82166 11.8908L12.5542 14.6283C12.8847 14.9485 13.4123 14.9402 13.7325 14.6096C14.0449 14.2871 14.0456 13.775 13.7342 13.4517L11 10.715C10.6747 10.3896 10.6747 9.86208 11 9.53667L14.5367 6C14.8621 5.67469 15.3896 5.67469 15.715 6L17.5767 7.85833C18.3299 8.61604 19.4841 8.80542 20.44 8.32833C21.1001 7.99781 21.7826 7.71406 22.4825 7.47917C23.4927 7.13719 24.171 6.1874 24.1667 5.12083V2.5C24.1667 2.03979 24.5398 1.66667 25 1.66667H30C30.4602 1.66667 30.8333 2.03979 30.8333 2.5V5.12083C30.8291 6.18719 31.5074 7.13667 32.5175 7.47833C33.2177 7.71333 33.9005 7.99729 34.5608 8.32833C35.517 8.80292 36.6696 8.61333 37.4233 7.8575L39.285 6C39.6104 5.67469 40.1379 5.67469 40.4633 6L44 9.5375C44.3248 9.86281 44.3248 10.3897 44 10.715L42.1417 12.5767C41.3847 13.3303 41.1954 14.484 41.6717 15.44C42.0022 16.1001 42.2859 16.7826 42.5208 17.4825C42.8626 18.4929 43.8125 19.1713 44.8792 19.1667H47.5C47.9602 19.1667 48.3333 19.5398 48.3333 20V25C48.3333 25.4602 47.9602 25.8333 47.5 25.8333H44.8792C43.8128 25.8291 42.8633 26.5074 42.5217 27.5175C42.2868 28.2177 42.0027 28.9005 41.6717 29.5608C41.1962 30.5169 41.3859 31.6699 42.1425 32.4233L44.0008 34.285C44.3261 34.6104 44.3261 35.1379 44.0008 35.4633L40.4625 39C40.1372 39.3248 39.6103 39.3248 39.285 39L36.5467 36.2675C36.2265 35.9369 35.6989 35.9285 35.3683 36.2488C35.0377 36.569 35.0294 37.0966 35.3496 37.4271C35.3562 37.434 35.3631 37.4408 35.37 37.4475L38.1075 40.18C39.0836 41.1554 40.6655 41.1554 41.6417 40.18L45.1783 36.6442C46.1543 35.6679 46.1543 34.0854 45.1783 33.1092L43.3225 31.25C43.0725 31.0038 43.0078 30.6253 43.1617 30.31C43.5282 29.5798 43.8426 28.8246 44.1025 28.05C44.2159 27.7185 44.5288 27.4969 44.8792 27.5H47.5C48.8807 27.5 50 26.3807 50 25V20C50 18.6193 48.8807 17.5 47.5 17.5Z" fill="#233237"/>
<path d="M35.16 14.84C30.9269 10.6157 24.0731 10.6157 19.84 14.84C19.5203 15.171 19.5295 15.6986 19.8605 16.0183C20.1834 16.3302 20.6954 16.3302 21.0183 16.0183C24.5741 12.4146 30.3779 12.3757 33.9817 15.9315C37.5854 19.4872 37.6243 25.291 34.0686 28.8948C34.0398 28.924 34.0108 28.9529 33.9817 28.9817C33.6506 29.3015 33.6415 29.829 33.9613 30.16C34.2811 30.491 34.8086 30.5002 35.1396 30.1804C35.1465 30.1737 35.1533 30.1669 35.16 30.16C39.3843 25.9269 39.3843 19.0731 35.16 14.84Z" fill="#233237"/>
</svg>
