<svg width="26" height="27" viewBox="0 0 26 27" fill="none" xmlns="http://www.w3.org/2000/svg">
<g clip-path="url(#clip0)">
<path d="M14.7554 26.9473H10.5836C9.88675 26.9473 9.3199 26.3598 9.3199 25.6376V15.885H6.88598C6.18916 15.885 5.62231 15.2973 5.62231 14.5753V10.3963C5.62231 9.67408 6.18916 9.08659 6.88598 9.08659H9.3199V6.9939C9.3199 4.91892 9.94856 3.15356 11.1377 1.88896C12.3322 0.618599 14.0015 -0.0527344 15.9652 -0.0527344L19.1468 -0.0473786C19.8425 -0.0461426 20.4083 0.541351 20.4083 1.26233V5.14243C20.4083 5.86464 19.8417 6.45213 19.145 6.45213L17.0029 6.45296C16.3496 6.45296 16.1832 6.58871 16.1476 6.63032C16.089 6.69933 16.0193 6.8944 16.0193 7.43308V9.08638H18.984C19.2072 9.08638 19.4235 9.14344 19.6093 9.25097C20.0102 9.48312 20.2594 9.9221 20.2594 10.3965L20.2578 14.5755C20.2578 15.2973 19.691 15.8848 18.9942 15.8848H16.0193V25.6376C16.0193 26.3598 15.4522 26.9473 14.7554 26.9473ZM10.8471 25.3644H14.4918V15.1764C14.4918 14.6941 14.8705 14.3019 15.3355 14.3019H18.7306L18.732 10.6694H15.3353C14.8703 10.6694 14.4918 10.2772 14.4918 9.795V7.43308C14.4918 6.81468 14.5525 6.11142 15.0028 5.58284C15.547 4.94385 16.4046 4.8701 17.0025 4.8701L18.8811 4.86928V1.53506L15.964 1.53012C12.8082 1.53012 10.8471 3.62384 10.8471 6.9939V9.795C10.8471 10.277 10.4687 10.6694 10.0036 10.6694H7.14953V14.3019H10.0036C10.4687 14.3019 10.8471 14.6941 10.8471 15.1764V25.3644ZM19.1438 1.53548H19.144H19.1438Z" fill="white"/>
</g>
<defs>
<clipPath id="clip0">
<rect width="26" height="27" fill="white"/>
</clipPath>
</defs>
</svg>
