<svg width="50" height="50" viewBox="0 0 50 50" fill="none" xmlns="http://www.w3.org/2000/svg">
<g clip-path="url(#clip0)">
<path d="M33.9863 15.1512C33.4462 15.1512 33.0078 15.5876 33.0078 16.1274C33.0078 16.6668 33.4462 17.104 33.9863 17.104C34.5275 17.104 34.9648 16.6668 34.9648 16.1274C34.9648 15.5876 34.5275 15.1512 33.9863 15.1512Z" fill="#233237"/>
<path d="M16.2079 32.8945C15.6667 32.8945 15.2294 33.3321 15.2294 33.8711C15.2294 34.4113 15.6667 34.8477 16.2079 34.8477C16.7479 34.8477 17.1863 34.4113 17.1863 33.8711C17.1863 33.3321 16.7479 32.8945 16.2079 32.8945Z" fill="#233237"/>
<path d="M48.8805 6.00786C48.5503 5.93119 48.2032 6.03075 47.9647 6.27108L43.9082 10.3517H41.9635L39.8227 8.13799V6.16999L43.8211 2.11992C44.0577 1.88036 44.154 1.53589 44.0757 1.20821C43.9977 0.880907 43.7561 0.61693 43.4366 0.509355C42.4321 0.171373 41.381 9.26482e-05 40.312 9.26482e-05C37.125 9.26482e-05 34.2298 1.48325 32.3684 4.06923C30.6262 6.49004 30.0892 9.45673 30.8586 12.296L23.6512 19.4894L11.6435 7.47767V5.12018C11.6435 4.77724 11.463 4.45909 11.1684 4.28286L4.24986 0.139329C3.86459 -0.0914601 3.37191 -0.0308064 3.05467 0.286195L0.287427 3.04766C-0.0298129 3.36466 -0.0905852 3.85637 0.140273 4.24089L4.29114 11.1459C4.46773 11.44 4.78611 11.6197 5.12972 11.62L7.49106 11.6208L19.4999 23.6325L12.32 30.7984C9.47514 30.0309 6.50112 30.5677 4.07443 32.3075C1.48491 34.1642 0 37.053 0 40.2337C0 41.3003 0.171615 42.3497 0.510259 43.3519C0.618426 43.6727 0.885595 43.9149 1.21583 43.9912C1.54645 44.0679 1.89312 43.9683 2.132 43.728L6.18808 39.6478H8.1435L10.3714 41.8714V43.823L6.28325 47.8711C6.04246 48.1096 5.9427 48.4555 6.01952 48.7855C6.09597 49.1151 6.33867 49.3818 6.66012 49.4897C7.6642 49.8277 8.71568 49.999 9.78435 49.999C12.9713 49.999 15.8654 48.5166 17.726 45.9321C19.4693 43.5102 20.0071 40.5423 19.2381 37.7031L25.0046 31.9478L26.3255 33.3799L25.7193 33.9845C25.3371 34.366 25.3371 34.9843 25.7193 35.3658C26.1015 35.7469 26.7207 35.7469 27.1033 35.3658L27.6522 34.818L40.0459 48.2541C40.0551 48.264 40.0647 48.2736 40.0742 48.2831C42.3675 50.5719 46.083 50.5727 48.3775 48.2827C50.6654 45.9981 50.6654 42.2807 48.3775 39.9961C48.3676 39.9862 48.3572 39.9766 48.3469 39.9671L34.8635 27.6212L35.4062 27.0795C35.7884 26.6984 35.7884 26.08 35.4062 25.6986C35.024 25.3171 34.4048 25.3171 34.0222 25.6986L33.4202 26.2998L31.9827 24.9829L37.7771 19.1999C38.6008 19.4196 39.4508 19.531 40.312 19.531C45.7073 19.531 50.0963 15.1502 50.0963 9.76572C50.0963 8.69875 49.9247 7.64971 49.5861 6.64721C49.4779 6.32639 49.2107 6.08416 48.8805 6.00786ZM8.58955 9.95455C8.40608 9.77106 8.15726 9.6776 7.89735 9.6776L5.68432 9.67684L2.2115 3.88994L3.89822 2.20651L9.68651 5.67331V7.88202C9.68651 8.14066 9.78932 8.38862 9.9724 8.57172L22.2675 20.8707L20.8835 22.2516L8.58955 9.95455ZM33.4783 29.0036L47.0076 41.3911C48.5189 42.9155 48.5143 45.3836 46.9935 46.9022C45.4692 48.4235 43.0016 48.4281 41.4712 46.9156L29.037 33.4356L33.4783 29.0036ZM32.0351 27.6818L27.7103 31.9974L26.3894 30.5654L30.5976 26.365L32.0351 27.6818ZM40.312 17.5778C39.4562 17.5778 38.6145 17.4409 37.8111 17.1708C37.4591 17.0529 37.07 17.1437 36.807 17.4058C31.9017 22.3016 21.3319 32.8504 17.4398 36.7353C17.1768 36.9977 17.0854 37.3861 17.2043 37.7378C18.0177 40.1483 17.6286 42.7194 16.1364 44.7927C14.6484 46.8599 12.333 48.0458 9.78435 48.0458C9.49807 48.0458 9.21332 48.0302 8.93125 48.0001L12.039 44.9224C12.224 44.7393 12.3284 44.4898 12.3284 44.2292V41.4666C12.3284 41.2076 12.2252 40.9593 12.0417 40.7762L9.24046 37.9804C9.057 37.7973 8.80817 37.6943 8.54865 37.6943H5.78064C5.51959 37.6943 5.26962 37.7984 5.08577 37.9831L2.00243 41.0848C1.97185 40.8033 1.95657 40.5191 1.95657 40.2333C1.95657 37.6893 3.14449 35.3788 5.21611 33.8937C7.29307 32.4044 9.86959 32.0157 12.2852 32.8279C12.6372 32.9465 13.0263 32.8553 13.2893 32.5929C13.3432 32.5395 32.6428 13.2772 32.6566 13.2634C32.9195 13.001 33.0105 12.613 32.892 12.2613C32.0783 9.85079 32.4666 7.28045 33.9576 5.20868C35.4467 3.13959 37.7626 1.95322 40.3116 1.95322C40.6067 1.95322 40.8998 1.96962 41.1903 2.00167L38.1471 5.08432C37.9667 5.26705 37.8658 5.5131 37.8658 5.76944V8.53205C37.8658 8.78535 37.964 9.02834 38.1402 9.2103L40.8436 12.0061C41.0279 12.1968 41.282 12.3044 41.5477 12.3044H44.3157C44.5764 12.3044 44.8263 12.2006 45.0102 12.0156L48.0935 8.91428C48.1241 9.19581 48.1394 9.48 48.1394 9.76572C48.1394 14.0733 44.628 17.5778 40.312 17.5778Z" fill="#233237"/>
<path d="M30.5272 18.1988L18.2829 30.4192C17.9011 30.8003 17.9011 31.4186 18.2829 31.8001C18.6651 32.1816 19.2847 32.1816 19.6669 31.8001L31.9112 19.5797C32.2934 19.1986 32.2934 18.5803 31.9112 18.1988C31.529 17.8173 30.9094 17.8173 30.5272 18.1988Z" fill="#233237"/>
<path d="M42.8919 44.1407C43.2741 44.521 43.8937 44.521 44.2759 44.1384C44.6574 43.7565 44.6562 43.1382 44.2736 42.7574L35.454 33.9833C35.0714 33.6026 34.4514 33.6037 34.0704 33.9855C33.6885 34.3678 33.6897 34.9858 34.0723 35.3665L42.8919 44.1407Z" fill="#233237"/>
</g>
<defs>
<clipPath id="clip0">
<rect width="50" height="50" fill="white"/>
</clipPath>
</defs>
</svg>
