<svg width="26" height="27" viewBox="0 0 26 27" fill="none" xmlns="http://www.w3.org/2000/svg">
<path d="M18.962 0H7.03795C3.15716 0 0 3.27859 0 7.30864V19.6915C0 23.7214 3.15716 26.9999 7.03795 26.9999H18.9622C22.8428 26.9999 26 23.7214 26 19.6915V7.30864C26 3.27859 22.8428 0 18.962 0V0ZM24.4757 19.6915C24.4757 22.8486 22.0023 25.4171 18.962 25.4171H7.03795C3.99763 25.4171 1.52423 22.8486 1.52423 19.6915V7.30864C1.52423 4.15138 3.99763 1.58285 7.03795 1.58285H18.9622C22.0023 1.58285 24.4757 4.15138 24.4757 7.30864V19.6915Z" fill="white"/>
<path d="M13 6.11737C9.0799 6.11737 5.89081 9.42912 5.89081 13.5C5.89081 17.5708 9.0799 20.8826 13 20.8826C16.92 20.8826 20.1091 17.5708 20.1091 13.5C20.1091 9.42912 16.92 6.11737 13 6.11737ZM13 19.2997C9.92057 19.2997 7.41504 16.698 7.41504 13.5C7.41504 10.3021 9.92057 7.70022 13 7.70022C16.0796 7.70022 18.5849 10.3021 18.5849 13.5C18.5849 16.698 16.0796 19.2997 13 19.2997Z" fill="white"/>
<path d="M20.2791 3.49551C19.1207 3.49551 18.1785 4.47419 18.1785 5.67698C18.1785 6.87998 19.1207 7.85866 20.2791 7.85866C21.4376 7.85866 22.38 6.87998 22.38 5.67698C22.38 4.47398 21.4376 3.49551 20.2791 3.49551ZM20.2791 6.2756C19.9614 6.2756 19.7027 6.00698 19.7027 5.67698C19.7027 5.34678 19.9614 5.07837 20.2791 5.07837C20.5971 5.07837 20.8558 5.34678 20.8558 5.67698C20.8558 6.00698 20.5971 6.2756 20.2791 6.2756Z" fill="white"/>
</svg>
