<svg width="50" height="50" viewBox="0 0 50 50" fill="none" xmlns="http://www.w3.org/2000/svg">
<path d="M49.2676 4.85273H26.4418V0.732422C26.4418 0.32793 26.114 0 25.7094 0H21.1397C20.7353 0 20.4073 0.32793 20.4073 0.732422V4.85273H11.4442C11.0397 4.85273 10.7118 5.18066 10.7118 5.58516V11.8822C10.2284 12.1398 9.77031 12.4785 9.38457 12.8684V10.7157C9.38457 9.38789 8.06357 8.29756 6.09873 7.93555V6.3456C6.09873 5.94111 5.7708 5.61318 5.36631 5.61318C4.06963 5.61318 2.75127 6.11172 1.74922 6.98096C0.621289 7.95947 0 9.31768 0 10.8053V13.8739C0 14.8209 1.46484 14.8209 1.46484 13.8739V10.8053C1.46484 9.20205 2.65791 7.48516 4.63389 7.14033V35.2364C3.48447 35.3801 2.31064 35.8398 1.46777 36.6499C1.46621 35.6525 1.46484 17.7659 1.46484 17.7659C1.46484 16.8189 0 16.8189 0 17.7659V40.5164C0 40.5575 0.00419922 40.5976 0.0107422 40.6368C0.0827148 42.7852 2.07031 44.3906 4.69229 44.3906C5.96172 44.3906 7.09746 44.0293 7.93408 43.4339L7.93447 46.1266C7.93486 48.6016 10.4102 50 12.6274 50C14.981 49.9996 17.319 48.6741 17.319 46.125L17.3174 35.7697H38.1758L22.9773 48.71C22.4692 49.1425 22.7849 50 23.4521 50H45.5096C45.9142 50 46.242 49.6721 46.242 49.2676V45.7146C46.242 44.7677 44.7771 44.7677 44.7771 45.7146V48.5352H25.4423L44.7771 32.0733V41.674C44.7771 42.621 46.242 42.621 46.242 41.674V35.7699H49.2676C49.6722 35.7699 50 35.442 50 35.0375V24.8145V5.58516C50 5.18066 49.6722 4.85273 49.2676 4.85273ZM48.5352 6.31758V24.082H31.3816V6.31758H48.5352ZM24.977 1.46484V20.2095H21.8722V18.3377H22.404C23.351 18.3377 23.351 16.8729 22.404 16.8729H21.8722V14.9536H23.0876C24.0346 14.9536 24.0346 13.4888 23.0876 13.4888H21.8722V11.5695H22.404C22.8085 11.5695 23.1364 11.2416 23.1364 10.8371C23.1364 10.4326 22.8085 10.1047 22.404 10.1047H21.8722V8.18545H23.0876C24.0346 8.18545 24.0346 6.72061 23.0876 6.72061H21.8722V4.80147H22.404C23.351 4.80147 23.351 3.33662 22.404 3.33662H21.8722V1.46484H24.977ZM11.5684 13.0645C11.8846 12.9148 12.2162 12.81 12.5632 12.7497L12.5677 40.8458C11.7518 40.9479 10.4328 41.2685 9.40176 42.2598C9.4001 41.2761 9.39853 40.5146 9.39853 40.4939L9.39463 16.4151C9.39443 15.1027 10.1942 13.7145 11.5684 13.0645ZM15.8539 43.9878C15.8292 43.9736 15.8043 43.9597 15.779 43.9458C14.939 43.4847 13.8422 43.2274 12.6847 43.2192L12.6846 42.3087C13.0355 42.2604 13.2713 42.264 13.277 42.264C13.7355 42.2333 13.9874 41.9893 14.0325 41.5318L14.0283 15.0474C14.9992 15.2876 15.8494 15.7798 15.8495 16.3246L15.8539 43.9878ZM7.91973 10.7157V34.8843V38.369C7.10361 37.9004 6.00078 37.6184 4.75068 37.61V36.6992C5.10186 36.6509 5.3376 36.6546 5.34307 36.6547C5.80166 36.624 6.05352 36.38 6.09873 35.9227V9.4335C7.21436 9.70059 7.91973 10.2545 7.91973 10.7157ZM7.91973 40.8633C7.91973 41.9813 6.4417 42.9258 4.69229 42.9258C2.85654 42.9258 1.47217 41.89 1.47217 40.5164C1.47217 39.1254 1.97637 37.8079 3.28584 37.1426V38.374C3.33799 38.8531 3.60508 39.0962 4.08701 39.1032C5.10479 39.0074 6.22988 39.1213 7.13984 39.6209C7.66494 39.9093 7.9625 40.2755 7.91973 40.8633ZM12.6272 48.5352C12.627 48.5352 12.6269 48.5352 12.6265 48.5352C10.7912 48.5352 9.40684 47.4996 9.40664 46.1264C9.40645 44.7355 9.91035 43.4177 11.2198 42.7522L11.22 43.9837C11.2723 44.4627 11.5394 44.7058 12.0212 44.7127C13.2637 44.5959 15.9139 44.7953 15.8543 46.4721C15.8545 47.5901 14.3767 48.535 12.6272 48.5352ZM17.3144 16.3242C17.3142 15.0057 15.9888 13.9089 14.028 13.5453L14.0277 11.9547C13.9857 11.5083 13.7416 11.2642 13.2952 11.2224C12.9214 11.2225 12.546 11.2652 12.1767 11.3451V6.31758H20.4073V20.9418C20.4073 21.3463 20.7353 21.6742 21.1397 21.6742H25.7094C26.114 21.6742 26.4418 21.3463 26.4418 20.9418V6.31758H29.9168V24.8145V34.305H17.3173L17.3144 16.3242ZM45.8167 29.8228C45.5573 29.703 45.2521 29.7448 45.0347 29.9301L39.8963 34.305H31.3816V25.5469H48.5352V34.305H46.242V30.4878C46.242 30.2022 46.076 29.9427 45.8167 29.8228Z" fill="#233237"/>
<path d="M34.8965 20.988H41.645C41.8378 20.988 42.0276 20.9091 42.1637 20.7727L45.5379 17.4011C45.6754 17.2637 45.7526 17.0772 45.7526 16.8829L45.7517 10.1439C45.7517 9.74766 45.4154 9.41162 45.0191 9.41162L38.2697 9.4124C38.0757 9.4124 37.8894 9.48955 37.7522 9.62676L34.3793 12.997C34.2432 13.1327 34.164 13.3235 34.164 13.5156V20.2556C34.1641 20.6602 34.492 20.988 34.8965 20.988ZM35.6289 14.248H40.9126V19.5231H35.6289V14.248ZM42.3775 18.4884V13.8192L44.2873 11.911L44.288 16.5796L42.3775 18.4884ZM38.5732 10.8772L43.25 10.8767L41.3419 12.7832H36.6656L38.5732 10.8772Z" fill="#233237"/>
<path d="M38.3607 30.6725H35.9338C34.9868 30.6725 34.9868 32.1374 35.9338 32.1374H38.3607C39.3076 32.1374 39.3076 30.6725 38.3607 30.6725Z" fill="#233237"/>
<path d="M42.1523 27.758H35.9338C34.9868 27.758 34.9868 29.2228 35.9338 29.2228H42.1523C43.0992 29.2228 43.0992 27.758 42.1523 27.758Z" fill="#233237"/>
<path d="M41.4772 37.6277L32.634 45.157C32.1261 45.5895 32.4416 46.4471 33.1088 46.4471H41.9521C42.3566 46.4471 42.6845 46.1191 42.6845 45.7146V38.1853C42.6845 37.6285 41.9812 37.1985 41.4772 37.6277ZM41.2196 44.9822H35.0988L41.2196 39.7709V44.9822Z" fill="#233237"/>
</svg>
