<svg width="25" height="25" viewBox="0 0 25 25" fill="none" xmlns="http://www.w3.org/2000/svg">
<path d="M3.09074 20.0651L3.21388 19.698L2.98598 19.3851C1.57802 17.4515 0.75 15.0708 0.75 12.5C0.75 6.02028 6.01908 0.75 12.4969 0.75H12.5031C18.9809 0.75 24.25 6.02178 24.25 12.5C24.25 18.9782 18.9809 24.25 12.5031 24.25C10.1124 24.25 7.89804 23.5395 6.04076 22.3091L5.74085 22.1105L5.39819 22.22L2.00385 23.3051L3.09074 20.0651Z" stroke="white" stroke-width="1.5"/>
<path d="M18.5266 17.0745C18.2719 17.8468 17.2613 18.4874 16.4552 18.6745C15.9037 18.8006 15.1833 18.9012 12.7584 17.8213C9.65657 16.441 7.65907 13.0553 7.50338 12.8357C7.3543 12.616 6.25 11.0429 6.25 9.41599C6.25 7.78906 7.01918 6.99686 7.32923 6.65673C7.58387 6.37755 8.00474 6.25 8.40846 6.25C8.53908 6.25 8.6565 6.25709 8.76205 6.26275C9.07209 6.27693 9.22778 6.29677 9.43228 6.82254C9.68691 7.48153 10.307 9.10846 10.3809 9.27569C10.4561 9.44292 10.5313 9.66967 10.4258 9.88933C10.3268 10.1161 10.2397 10.2167 10.084 10.4094C9.92835 10.6022 9.78059 10.7496 9.6249 10.9565C9.48241 11.1365 9.32145 11.3292 9.50088 11.6622C9.68032 11.9882 10.3004 13.0752 11.2134 13.9481C12.3916 15.0748 13.3468 15.4348 13.6885 15.5878C13.9431 15.7012 14.2466 15.6743 14.4326 15.4617C14.6688 15.1882 14.9604 14.7347 15.2572 14.2883C15.4683 13.968 15.7348 13.9283 16.0145 14.0417C16.2995 14.148 17.8075 14.9487 18.1176 15.1145C18.4276 15.2817 18.6321 15.3611 18.7073 15.5014C18.7812 15.6417 18.7812 16.3007 18.5266 17.0745Z" fill="#FAFAFA"/>
</svg>
